<?xml version="1.0" encoding="UTF-8"?>
<svg width="27px" height="31px" viewBox="0 0 27 31" version="1.1" xmlns="http://www.w3.org/2000/svg" xmlns:xlink="http://www.w3.org/1999/xlink">
    <title>bell_block-icon-white</title>
    <defs>
        <polygon id="path-1" points="0.0001 0.0003 26.05 0.0003 26.05 30.25 0.0001 30.25"></polygon>
    </defs>
    <g id="bell_block-icon-white" stroke="none" stroke-width="1" fill="none" fill-rule="evenodd">
        <g id="bell_icon">
            <g id="Group-3">
                <mask id="mask-2" fill="white">
                    <use xlink:href="#path-1"></use>
                </mask>
                <g id="Clip-2"></g>
                <path d="M23.1621,25.8213 L2.8881,25.8213 C2.1721,25.8213 1.5901,25.2283 1.5901,24.5003 C1.5901,23.5963 1.9751,22.7403 2.6461,22.1503 C4.8041,20.2493 6.1971,15.6513 6.1971,10.4373 C6.1971,7.4823 8.0421,4.8463 10.7881,3.8793 L11.6081,3.5903 L11.7541,2.7183 C11.8581,2.0783 12.3921,1.6133 13.0241,1.6133 C13.6571,1.6133 14.1921,2.0773 14.2971,2.7163 L14.4391,3.5883 L15.2631,3.8783 C18.0081,4.8463 19.8511,7.4833 19.8511,10.4373 C19.8511,15.6473 21.2471,20.2473 23.4081,22.1543 C24.0751,22.7373 24.4581,23.5923 24.4581,24.5003 C24.4581,25.2283 23.8771,25.8213 23.1621,25.8213 L23.1621,25.8213 Z M24.4451,20.9303 C22.6491,19.3443 21.4421,15.1283 21.4421,10.4373 C21.4421,6.8613 19.2241,3.6333 15.9201,2.4033 L15.8551,2.3793 L15.8421,2.3113 C15.5541,0.9513 14.3951,0.0003 13.0241,0.0003 C11.6571,0.0003 10.5001,0.9513 10.2111,2.3123 L10.1971,2.3793 L10.1331,2.4033 C6.8281,3.6333 4.6071,6.8613 4.6071,10.4373 C4.6071,15.1323 3.4001,19.3483 1.6031,20.9303 C0.5851,21.8263 0.0011,23.1283 0.0001,24.5043 C0.0021,26.1203 1.2971,27.4343 2.8881,27.4343 L10.1371,27.4343 L10.1461,27.5503 C10.2671,29.0633 11.5311,30.2503 13.0241,30.2503 C14.5191,30.2503 15.7861,29.0633 15.9071,27.5503 L15.9171,27.4343 L23.1621,27.4343 C24.7541,27.4343 26.0501,26.1183 26.0501,24.5003 C26.0501,23.1243 25.4651,21.8223 24.4461,20.9303 L24.4451,20.9303 Z" id="Fill-1" fill="#FFFFFF" mask="url(#mask-2)"></path>
            </g>
            <line x1="1.5" y1="29.5" x2="24.5" y2="0.5" id="Line-5" stroke="#FFFFFF" stroke-width="1.5" stroke-linecap="round"></line>
        </g>
    </g>
</svg>