<svg id="Capa_1" data-name="Capa 1" xmlns="http://www.w3.org/2000/svg" viewBox="0 0 300 300"><path style="fill:#526FDC;" d="M258,204.92c-17-15-28.41-54.89-28.41-99.26,0-33.83-21-64.37-52.23-76l-.61-.23-.13-.64a27.16,27.16,0,0,0-53.27,0l-.13.63-.61.23c-31.26,11.63-52.26,42.17-52.26,76C70.38,150.06,59,190,42,204.92a45,45,0,0,0-15.17,33.8,27.57,27.57,0,0,0,27.32,27.72h68.57l.09,1.09c1.15,14.32,13.1,25.54,27.23,25.54a27.68,27.68,0,0,0,27.26-25.54l.1-1.09h68.53a27.57,27.57,0,0,0,27.32-27.76A44.83,44.83,0,0,0,258,204.92Zm-12.14,46.26H54.11a12.41,12.41,0,0,1-12.28-12.5,29.53,29.53,0,0,1,10-22.22c20.4-18,33.58-61.48,33.58-110.8,0-27.95,17.45-52.89,43.43-62l7.76-2.74L138,32.64a12.15,12.15,0,0,1,24.05,0l1.35,8.25,7.79,2.74c26,9.16,43.41,34.11,43.41,62.05,0,49.28,13.2,92.79,33.64,110.83a29.4,29.4,0,0,1,9.93,22.19A12.4,12.4,0,0,1,245.89,251.18Z"/></svg>
