<svg id="Capa_1" data-name="Capa 1" xmlns="http://www.w3.org/2000/svg" viewBox="0 0 300 300"><path style="fill:#526FDC;" d="M277.82,119.35c-7.75-2.75-15.16-9.54-16.95-13.91S259.51,91,263,83.53c5.57-11.69,2.41-28.34-7.17-37.92s-26.24-12.75-38-7.2c-7.42,3.55-17.47,4-21.84,2.21s-11.16-9.25-13.91-17c-4.34-12.19-18.37-21.74-31.93-21.74s-27.58,9.56-31.89,21.73c-2.77,7.76-9.58,15.19-13.93,17S90,42,82.54,38.41C70.86,32.83,54.2,36,44.61,45.6s-12.75,26.23-7.2,37.94C41,91,41.4,101,39.59,105.41s-9.25,11.2-17,13.94C10.43,123.66.87,137.66.87,151.22s9.55,27.57,21.75,31.93c7.72,2.75,15.14,9.55,17,13.95s1.37,14.38-2.19,21.82c-5.56,11.72-2.39,28.38,7.2,37.94s26.25,12.7,37.92,7.18c7.43-3.52,17.51-4,21.84-2.19s11.19,9.27,13.95,17c4.32,12.18,18.34,21.72,31.9,21.72s27.58-9.53,31.94-21.72c2.74-7.74,9.53-15.18,13.9-17s14.39-1.35,21.84,2.18c11.67,5.57,28.34,2.44,37.95-7.15s12.74-26.27,7.19-38c-3.54-7.45-4-17.48-2.16-21.86s9.18-11.15,16.95-13.91c12.2-4.35,21.74-18.37,21.74-31.92S290,123.66,277.82,119.35Zm-4.76,50.39c-10.92,3.88-21.82,13.31-25.33,21.89s-2.51,22.92,2.46,33.38c3,6.29.93,16.48-4.4,21.81s-15.49,7.37-21.77,4.37c-10.47-5-24.86-6-33.43-2.47s-18,14.5-21.83,25.35c-2.34,6.55-11,12.28-18.54,12.28s-16.17-5.73-18.5-12.28c-3.89-10.86-13.29-21.76-21.9-25.36a33,33,0,0,0-12.33-2.09,51,51,0,0,0-21.07,4.57c-6.26,3-16.44.91-21.77-4.41s-7.37-15.47-4.4-21.75c5-10.45,6.06-24.81,2.47-33.4s-14.49-18-25.33-21.88c-6.55-2.34-12.29-11-12.29-18.53s5.73-16.15,12.28-18.46c10.85-3.85,21.75-13.26,25.35-21.91s2.5-23-2.47-33.42c-3-6.28-.93-16.46,4.4-21.77s15.51-7.4,21.75-4.41c10.44,5,24.81,6.06,33.44,2.5s18-14.47,21.88-25.38c2.32-6.54,11-12.27,18.49-12.27s16.2,5.74,18.53,12.27c3.86,10.89,13.25,21.8,21.89,25.4s23,2.46,33.37-2.51c6.32-3,16.47-.92,21.78,4.4s7.39,15.49,4.4,21.77c-4.95,10.43-6,24.8-2.47,33.42s14.42,18,25.35,21.91c6.55,2.3,12.28,10.94,12.28,18.46S279.6,167.41,273.06,169.74Z"/><path style="fill:#526FDC;" d="M150.22,92a59.27,59.27,0,1,0,59.26,59.28A59.35,59.35,0,0,0,150.22,92Zm0,104.31a45,45,0,1,1,45-45A45.1,45.1,0,0,1,150.22,196.31Z"/></svg>
