<?xml version="1.0" encoding="UTF-8"?>
<svg width="39px" height="22px" viewBox="0 0 39 22" version="1.1" xmlns="http://www.w3.org/2000/svg" xmlns:xlink="http://www.w3.org/1999/xlink">
    <title>delete_keyboard</title>
    <g id="delete_keyboard" stroke="none" stroke-width="1" fill="none" fill-rule="evenodd">
        <g id="Group-3" stroke="#6E6E6E">
            <path d="M35.8918919,1.08333333 L11.7443788,1.08333333 C11.2850246,1.08333333 10.8616838,1.23800504 10.4018049,1.58056715 C10.2455169,1.66830972 10.0986162,1.77880508 9.96566084,1.91176046 L1.96564899,9.91177231 C1.5751247,10.3022966 1.37986255,10.8141412 1.37986255,11.3259859 C1.37986255,11.8378305 1.5751247,12.3496751 1.96564899,12.7401994 L9.48035577,20.2549062 C9.87176912,20.6463196 10.3851619,20.8416293 11.1833017,20.8788318 C11.3613262,20.9307107 11.5496229,20.9583333 11.7443788,20.9583333 L35.8918919,20.9583333 C36.4441766,20.9583333 36.9441766,20.7344757 37.3061055,20.3725469 C37.6680343,20.0106181 37.8918919,19.5106181 37.8918919,18.9583333 L37.8918919,3.08333333 C37.8918919,2.53104858 37.6680343,2.03104858 37.3061055,1.66911977 C36.9441766,1.30719096 36.4441766,1.08333333 35.8918919,1.08333333 Z" id="Combined-Shape" stroke-width="2" fill-rule="nonzero"></path>
            <g id="Glyphs-/-Bar-Button-/-Stop-/-Disabled" transform="translate(13.042230, 1.125000)" fill="#6E6E6E" stroke-linejoin="round">
                <polygon id="stop" points="15.7252116 4.24100074 10.2742254 9.50982515 4.80490541 4.2480692 4.03342181 4.96975818 4.03342181 4.97894717 9.50714189 10.2513058 4.07155598 15.507407 4.79317181 16.2573698 4.80490541 16.2573698 10.2617584 10.9772359 15.7164114 16.2305097 16.5010953 15.5095275 16.5010953 15.5010454 11.0288419 10.2350484 16.4717613 4.96763765 15.7376786 4.24100074"></polygon>
            </g>
        </g>
    </g>
</svg>