<svg id="Capa_1" data-name="Capa 1" xmlns="http://www.w3.org/2000/svg" viewBox="0 0 300 300"><path style="fill:#526FDC;" d="M170.17,276.49a19.6,19.6,0,1,1-19.6-19.6A19.59,19.59,0,0,1,170.17,276.49Z"/><path style="fill:#526FDC;" d="M150.57,212.79a14.7,14.7,0,0,1-14.7-14.7V178.3a44.19,44.19,0,0,1,29.44-41.59c23.43-8.25,39.17-33.21,39.17-51.32a53.91,53.91,0,0,0-107.81,0,14.7,14.7,0,1,1-29.4,0,83.31,83.31,0,0,1,166.61,0c0,32.7-25.82,67.41-58.79,79.05a14.72,14.72,0,0,0-9.82,13.88v19.77A14.7,14.7,0,0,1,150.57,212.79Z"/></svg>
