<svg id="Capa_1" data-name="Capa 1" xmlns="http://www.w3.org/2000/svg" viewBox="0 0 300 300"><path style="fill:#F6BE62;" d="M43.29,87.23a11.76,11.76,0,0,1,5.62,4.37c.35.83.36,4.34-.92,7-3.16,6.66-1.46,15.76,3.95,21.15,5.26,5.24,14,7,20.58,4.17V109.82a24.19,24.19,0,0,0-5.21,1.76c-1.36.65-4.4.16-5.88-1.32a6.26,6.26,0,0,1-1.31-5.86c2.7-5.62,3.2-13.18,1.2-18S53.63,76.64,47.8,74.58a6.32,6.32,0,0,1-3.25-5.1,6.24,6.24,0,0,1,3.24-5.06c5.84-2.07,11.53-7.06,13.54-11.88s1.48-12.38-1.2-18c-.65-1.36-.16-4.41,1.31-5.87s4.5-2,5.86-1.32c5.61,2.69,13.17,3.2,18,1.21S95.05,20.9,97.15,15a6.26,6.26,0,0,1,5.07-3.23c2.09,0,4.59,1.81,5.09,3.23,2.08,5.85,7.06,11.56,11.89,13.57s12.35,1.45,17.92-1.22A6.31,6.31,0,0,1,143,28.7c1.47,1.47,2,4.51,1.31,5.87-2.67,5.61-3.17,13.17-1.2,18s7.66,9.8,13.55,11.9c1.42.5,3.22,3,3.22,5s-1.81,4.58-3.23,5.09c-5.88,2.09-11.57,7.08-13.53,11.85s-1.49,12.33,1.19,18c.65,1.38.16,4.43-1.3,5.9s-4.52,2-5.89,1.3a22.19,22.19,0,0,0-3.61-1.35v2a30.63,30.63,0,0,1,16.4,8.36c.63-.08,1.26-.14,1.89-.19.24-.21.48-.42.7-.65,5.41-5.4,7.1-14.5,4-21.16a11.62,11.62,0,0,1-.91-7.06c.34-.84,2.82-3.34,5.62-4.33,6.93-2.48,12.16-10.11,12.16-17.75s-5.23-15.27-12.18-17.73a11.89,11.89,0,0,1-5.6-4.32,12.09,12.09,0,0,1,.9-7.09c3.17-6.65,1.48-15.74-3.93-21.14S138,12.09,131.35,15.26a12,12,0,0,1-7,.92A11.73,11.73,0,0,1,120,10.54C117.5,3.6,109.87-1.63,102.22-1.63S86.94,3.6,84.49,10.53a12.19,12.19,0,0,1-4.33,5.64,11.81,11.81,0,0,1-7.07-.91c-6.64-3.18-15.74-1.49-21.15,3.93S44.83,33.68,48,40.35a12.09,12.09,0,0,1,.91,7,11.77,11.77,0,0,1-5.61,4.35C36.35,54.2,31.12,61.83,31.12,69.48S36.35,84.75,43.29,87.23Z"/><path style="fill:#F6BE62;" d="M86.08,74.5a16.91,16.91,0,1,1,32.5-.88A30.84,30.84,0,0,1,129,83.81,30.33,30.33,0,1,0,76.28,85.2,30.67,30.67,0,0,1,86.08,74.5Z"/><path style="fill:#F6BE62;" d="M179.39,140.58a19.9,19.9,0,0,0-8.07,1.7,20,20,0,0,0-25.5-8.5,20,20,0,0,0-22.94-9.43V101.08a20,20,0,1,0-40,0v94.53l-19-9.52a28.52,28.52,0,0,0-12.74-3A19.28,19.28,0,0,0,37.52,216l55,55a68.28,68.28,0,0,0,48.65,20.15,58.32,58.32,0,0,0,58.26-58.25V160.58A20,20,0,0,0,179.39,140.58Zm-63.76,48.5a7.26,7.26,0,0,0,7.25-7.25V143.58a5.5,5.5,0,0,1,11,0v38.25a7.25,7.25,0,1,0,14.5,0V152.08a5.51,5.51,0,0,1,11,0v29.75a7.25,7.25,0,1,0,14.5,0V160.58a5.5,5.5,0,0,1,11,0v72.26a43.81,43.81,0,0,1-43.76,43.75,53.9,53.9,0,0,1-38.39-15.91l-55-55a4.77,4.77,0,0,1,3.35-8.12,14.18,14.18,0,0,1,6.26,1.47L86.9,213.82a7.24,7.24,0,0,0,10.48-6.48V101.08a5.5,5.5,0,1,1,11,0v80.75A7.26,7.26,0,0,0,115.63,189.08Z"/></svg>
