<?xml version="1.0" encoding="UTF-8"?>
<svg width="51px" height="50px" viewBox="0 0 51 50" version="1.1" xmlns="http://www.w3.org/2000/svg" xmlns:xlink="http://www.w3.org/1999/xlink">
    <title>icon_controlled</title>
    <g id="icon_controlled" stroke="none" stroke-width="1" fill="none" fill-rule="evenodd">
        <g id="Group-12" fill="#526FDC">
            <path d="M24.17045,1.6667 L25.8371167,1.6667 C26.2971167,1.6667 26.67045,2.04003333 26.67045,2.50003333 C26.67045,2.96003333 26.2971167,3.33336667 25.8371167,3.33336667 L24.17045,3.33336667 C23.71045,3.33336667 23.3371167,2.96003333 23.3371167,2.50003333 C23.3371167,2.04003333 23.71045,1.6667 24.17045,1.6667 M24.17045,5.00003333 L25.8371167,5.00003333 C27.2177833,5.00003333 28.3371167,3.8807 28.3371167,2.50003333 C28.3371167,1.11936667 27.2177833,3.33333333e-05 25.8371167,3.33333333e-05 L24.17045,3.33333333e-05 C22.7897833,3.33333333e-05 21.67045,1.11936667 21.67045,2.50003333 C21.67045,3.8807 22.7897833,5.00003333 24.17045,5.00003333" id="Fill-1"></path>
            <path d="M47.40725,46.1903 C47.3865833,46.2321333 47.36425,46.2786333 47.3410833,46.3276333 C47.06975,46.8929667 46.61525,47.8391333 45.6450833,48.1913 C45.1030833,48.3811333 44.51275,48.3789667 43.9719167,48.1859667 L43.9615833,48.1824667 C43.31375,47.9709667 42.8140833,47.6503 42.28525,47.3108 C41.90525,47.0578 41.5114167,46.8259667 41.1055833,46.6174667 C40.6770833,46.3899667 40.20025,46.2691333 39.7145833,46.2651333 C39.3924167,46.2733 39.0710833,46.3113 38.7554167,46.3786333 C38.19275,46.4934667 37.61925,46.5446333 37.04525,46.5306333 L36.9595833,46.5283 C34.54975,46.4681333 33.05275,46.0459667 32.51075,45.2739667 C32.3844167,45.0928 32.4125833,44.9008 32.6995833,43.9869667 C33.01975,43.0251333 33.2525833,42.0366333 33.39625,41.0334667 C33.8140833,38.0328 34.0914167,35.9006333 34.1460833,33.6891333 C34.1695833,32.7324667 34.06025,31.6873 33.86425,30.5666333 C34.1614167,30.3209667 34.7940833,29.9103 36.0774167,29.4413 C38.64275,28.5034667 40.9949167,28.5679667 43.06775,29.6328 C45.35025,30.8053 47.3530833,33.1688 47.3730833,33.1926333 C47.4509167,33.2853 47.5449167,33.3561333 47.6474167,33.4056333 C47.7559167,33.9054667 47.85525,34.4213 47.9420833,34.9576333 C48.78575,40.1604667 48.12175,44.7363 47.40725,46.1903 M25.8370833,31.6666333 C25.8370833,31.2068 25.46375,30.8333 25.00375,30.8333 C24.54375,30.8333 24.1704167,31.2068 24.1704167,31.6666333 C24.1704167,33.8943 21.2005833,35.7796333 17.6524167,35.8311333 C17.58775,35.0873 17.5455833,34.3754667 17.5270833,33.6474667 C17.5184167,32.9833 17.5619167,32.3193 17.6579167,31.6618 C20.8034167,31.5609667 23.3370833,28.3811333 23.3370833,24.4839667 L23.3370833,9.30546667 C23.3370833,8.45213333 24.0845833,8.31313333 25.00375,8.31313333 C25.9229167,8.31313333 26.6704167,8.45213333 26.6704167,9.30546667 L26.6704167,24.4839667 C26.6704167,28.3811333 29.2040833,31.5609667 32.34975,31.6618 C32.44525,32.3193 32.48925,32.9833 32.4799167,33.6474667 C32.4619167,34.3754667 32.41975,35.0873 32.35525,35.8311333 C28.8069167,35.7796333 25.8370833,33.8943 25.8370833,31.6666333 M17.49675,45.2734667 C16.95525,46.0459667 15.4584167,46.4681333 13.0479167,46.5276333 L12.96275,46.5299667 C12.38875,46.5439667 11.81475,46.4929667 11.2525833,46.3781333 C10.5474167,46.2504667 9.88125,46.1296333 8.90241667,46.6168 C8.49658333,46.8259667 8.10275,47.0571333 7.72241667,47.3108 C7.19358333,47.6498 6.69375,47.9704667 6.04591667,48.1819667 L6.03575,48.1853 C5.49525,48.3783 4.90441667,48.3799667 4.36308333,48.1906333 C3.39241667,47.8386333 2.93841667,46.8923 2.66658333,46.3269667 C2.64325,46.2781333 2.62091667,46.2321333 2.60025,46.1896333 C1.88591667,44.7358 1.22191667,40.1599667 2.06541667,34.9571333 C2.16941667,34.3151333 2.29108333,33.7024667 2.42558333,33.1129667 C2.88208333,32.6023 4.68291667,30.6709667 6.70025,29.6431333 C8.81541667,28.5654667 11.2149167,28.4999667 13.83175,29.4488 C15.2055833,29.9469667 15.8494167,30.3806333 16.13325,30.6243 C15.94375,31.7229667 15.8384167,32.7486333 15.8615833,33.6886333 C15.9164167,35.8999667 16.1940833,38.0323 16.6119167,41.0331333 C16.7550833,42.0366333 16.98825,43.0251333 17.3084167,43.9864667 C17.5954167,44.9001333 17.62375,45.0921333 17.49675,45.2734667 M9.73575,21.4719667 C11.8224167,20.0786333 13.63225,20.0374667 15.2289167,20.0004667 C16.27425,19.9794667 17.8280833,20.4916333 18.1830833,21.1663 C18.4905833,21.7524667 18.3094167,22.3828 17.8705833,23.7531333 C17.7169167,24.2306333 17.5439167,24.7721333 17.37475,25.3939667 C17.0475833,26.5986333 16.7429167,27.7511333 16.4935833,28.8444667 C15.9924167,28.5413 15.3160833,28.2143 14.39975,27.8819667 C11.3319167,26.7693 8.48675,26.8624667 5.94341667,28.1581333 C5.00925,28.6341333 4.13258333,29.2634667 3.38541667,29.8823 C5.06141667,25.4149667 7.62525,22.8809667 9.73575,21.4719667 M31.8245833,21.1663 C32.1794167,20.4916333 33.7335833,19.9804667 34.7780833,20.0011333 C36.3754167,20.0374667 38.1845833,20.0791333 40.27125,21.4724667 C42.4300833,22.9138 45.0624167,25.5334667 46.73475,30.1939667 C45.9239167,29.4794667 44.91625,28.7086333 43.8294167,28.1504667 C41.32575,26.8641333 38.5250833,26.7719667 35.50525,27.8758 C34.63925,28.1924667 33.9899167,28.5048 33.5029167,28.7954667 C33.25575,27.7169667 32.9550833,26.5809667 32.6330833,25.3944667 C32.46425,24.7721333 32.2905833,24.2313 32.1375833,23.7538 C31.6980833,22.3828 31.5164167,21.7524667 31.8245833,21.1663 M49.5870833,34.6906333 C48.2345833,26.3469667 44.2779167,22.1436333 41.1974167,20.0858 C38.70775,18.4233 36.5499167,18.3744667 34.8165833,18.3344667 C34.0065833,18.3333 33.2030833,18.4783 32.44475,18.7631333 C31.4350833,19.1401333 30.7105833,19.7031333 30.34875,20.3916333 C29.7030833,21.6206333 30.0770833,22.7874667 30.55075,24.2626333 C30.69825,24.7233 30.8659167,25.2453 31.0249167,25.8306333 C31.42425,27.3024667 31.78875,28.6903 32.0534167,29.9674667 C29.9674167,29.6689667 28.3370833,27.3241333 28.3370833,24.4839667 L28.3370833,9.30546667 C28.3370833,7.53313333 26.84175,6.64646667 25.00375,6.64646667 C23.16575,6.64646667 21.6704167,7.53313333 21.6704167,9.30546667 L21.6704167,24.4839667 C21.6704167,27.3241333 20.04025,29.6689667 17.9540833,29.9674667 C18.21875,28.6896333 18.5834167,27.3024667 18.9825833,25.8306333 C19.1415833,25.2453 19.30925,24.7228 19.4569167,24.2626333 C19.9305833,22.7864667 20.3044167,21.6206333 19.6589167,20.3911333 C18.8855833,18.9198 16.5809167,18.3008 15.1909167,18.3344667 C13.4575833,18.3741333 11.29975,18.4233 8.81025,20.0858 C5.72991667,22.1429667 1.77291667,26.3469667 0.420416667,34.6906333 C-0.43775,39.9854667 0.132416667,44.9456333 1.10408333,46.9248 C1.12258333,46.9629667 1.14258333,47.0041333 1.16425,47.0484667 C1.49508333,47.7381333 2.18425,49.1731333 3.79391667,49.7568 C4.23225,49.9174667 4.69558333,49.9999667 5.16225,49.9999667 C5.63908333,49.9968 6.11175,49.9179667 6.56358333,49.7666333 C7.41375,49.4883 8.02841667,49.0944667 8.62191667,48.7136333 C8.95191667,48.4933 9.29291667,48.2919667 9.64458333,48.1093 C10.1280833,47.8683 10.35325,47.9094667 10.9549167,48.0186333 C11.62975,48.1548 12.31775,48.2146333 13.0055833,48.1966333 L13.0885833,48.1943 C14.31225,48.1641333 17.5619167,48.0831333 18.86075,46.2303 C19.48125,45.3449667 19.2110833,44.4846333 18.8974167,43.4873 C18.60525,42.6139667 18.3924167,41.7159667 18.26175,40.8041333 C18.0875833,39.5514667 17.9405833,38.4759667 17.8249167,37.4951333 C19.8730833,37.4419667 21.79625,36.8799667 23.2705833,35.8968 C23.9469167,35.4584667 24.5355833,34.8963 25.00375,34.2393 C25.4720833,34.8958 26.0600833,35.4578 26.73725,35.8961333 C28.21125,36.8793 30.1344167,37.4414667 32.1820833,37.4944667 C32.0665833,38.4754667 31.9199167,39.5508 31.74575,40.8034667 C31.6145833,41.7154667 31.4019167,42.6133 31.1094167,43.4868 C30.7964167,44.4841333 30.52625,45.3449667 31.1469167,46.2303 C32.4455833,48.0826333 35.6950833,48.1634667 36.91825,48.1938 L37.0019167,48.1961333 C37.68975,48.2134667 38.37775,48.1536333 39.0520833,48.0181333 C39.6539167,47.9091333 39.8790833,47.8683 40.36225,48.1088 C40.7145833,48.2914667 41.05575,48.4933 41.3850833,48.7131333 C41.97925,49.0941333 42.5934167,49.4883 43.4530833,49.7694667 C43.90125,49.9191333 44.3705833,49.9973 44.8425833,49.9999667 C45.31025,49.9999667 45.7740833,49.9179667 46.2135833,49.7574667 C47.82325,49.1731333 48.5124167,47.7381333 48.8434167,47.0491333 C48.8644167,47.0048 48.8850833,46.9629667 48.9035833,46.9248 C49.87575,44.9456333 50.4454167,39.9854667 49.5870833,34.6906333" id="Fill-3"></path>
            <path d="M14.26355,22.7441 C14.4812167,22.7441 14.6582167,22.9211 14.6582167,23.1387667 C14.6582167,23.3562667 14.4812167,23.5332667 14.26355,23.5332667 C14.0458833,23.5332667 13.86905,23.3562667 13.86905,23.1387667 C13.86905,22.9211 14.0458833,22.7441 14.26355,22.7441 M14.26355,25.1999333 C15.4002167,25.1999333 16.3248833,24.2752667 16.3248833,23.1387667 C16.3248833,22.0021 15.4002167,21.0774333 14.26355,21.0774333 C13.12705,21.0774333 12.2023833,22.0021 12.2023833,23.1387667 C12.2023833,24.2752667 13.12705,25.1999333 14.26355,25.1999333" id="Fill-6"></path>
            <path d="M39.2319667,23.491 C39.4496333,23.4228333 39.6799667,23.4436667 39.8816333,23.5491667 C40.0833,23.6545 40.2319667,23.8323333 40.2999667,24.0496667 C40.3679667,24.2668333 40.3474667,24.4976667 40.2419667,24.6993333 C40.1364667,24.901 39.9586333,25.0496667 39.7414667,25.1176667 C39.2928,25.2583333 38.8139667,25.0076667 38.6733,24.5591667 C38.5329667,24.1106667 38.7836333,23.6315 39.2319667,23.491 L39.2319667,23.491 Z M37.0828,25.0571667 C37.4199667,26.133 38.4161333,26.8235 39.4883,26.8235 C39.7369667,26.8235 39.9899667,26.7863333 40.2394667,26.7081667 C40.8816333,26.507 41.4069667,26.0678333 41.7188,25.4716667 C42.0306333,24.8755 42.0916333,24.1935 41.8904667,23.5515 C41.6894667,22.9095 41.2503,22.384 40.6541333,22.0721667 C40.0581333,21.7606667 39.3763,21.6993333 38.7339667,21.9005 C37.4086333,22.3156667 36.6678,23.7316667 37.0828,25.0571667 Z" id="Fill-8"></path>
            <path d="M34.0767,22.1860833 C34.1002,22.14125 34.1563667,22.06075 34.2688667,22.0254167 C34.3037,22.0145833 34.3367,22.01025 34.3667,22.01025 C34.4340333,22.01025 34.4875333,22.0315833 34.5183667,22.04775 C34.5633667,22.07125 34.6438667,22.1274167 34.6790333,22.2399167 C34.7143667,22.3524167 34.6802,22.4445833 34.6567,22.4894167 C34.6333667,22.53425 34.5772,22.61475 34.4645333,22.6500833 C34.3518667,22.6850833 34.2600333,22.6510833 34.2150333,22.62775 C34.1702,22.60425 34.0895333,22.5480833 34.0543667,22.4355833 C34.0190333,22.3230833 34.0532,22.2309167 34.0767,22.1860833 M33.5972,23.80925 C33.8380333,23.93525 34.1005333,23.9990833 34.3648667,23.9990833 C34.5315333,23.9990833 34.6992,23.97375 34.8630333,23.9224167 C35.2863667,23.7899167 35.6327,23.5004167 35.8382,23.1074167 C36.0438667,22.71425 36.0840333,22.26475 35.9515333,21.8414167 C35.8188667,21.4180833 35.5295333,21.07175 35.1362,20.86625 C34.7432,20.6605833 34.2935333,20.62025 33.8705333,20.7529167 C33.4472,20.8855833 33.1008667,21.1750833 32.8952,21.5680833 C32.6897,21.9610833 32.6495333,22.41075 32.7818667,22.8340833 C32.9145333,23.2574167 33.2040333,23.6035833 33.5972,23.80925" id="Fill-10"></path>
        </g>
    </g>
</svg>