<?xml version="1.0" encoding="UTF-8"?>
<svg width="51px" height="50px" viewBox="0 0 51 50" version="1.1" xmlns="http://www.w3.org/2000/svg" xmlns:xlink="http://www.w3.org/1999/xlink">
    <title>icon_assisted</title>
    <g id="icon_assisted" stroke="none" stroke-width="1" fill="none" fill-rule="evenodd">
        <g id="Group-12" fill="#526FDC">
            <path d="M24.17045,1.6667 L25.8371167,1.6667 C26.2971167,1.6667 26.67045,2.04003333 26.67045,2.50003333 C26.67045,2.96003333 26.2971167,3.33336667 25.8371167,3.33336667 L24.17045,3.33336667 C23.71045,3.33336667 23.3371167,2.96003333 23.3371167,2.50003333 C23.3371167,2.04003333 23.71045,1.6667 24.17045,1.6667 M24.17045,5.00003333 L25.8371167,5.00003333 C27.2177833,5.00003333 28.3371167,3.8807 28.3371167,2.50003333 C28.3371167,1.11936667 27.2177833,3.33333333e-05 25.8371167,3.33333333e-05 L24.17045,3.33333333e-05 C22.7897833,3.33333333e-05 21.67045,1.11936667 21.67045,2.50003333 C21.67045,3.8807 22.7897833,5.00003333 24.17045,5.00003333" id="Fill-1"></path>
            <path d="M47.4072667,46.1903 C47.3866,46.2321333 47.3642667,46.2786333 47.3411,46.3276333 C47.0697667,46.8929667 46.6151,47.8391333 45.6451,48.1913 C45.1031,48.3811333 44.5127667,48.3789667 43.9719333,48.1859667 L43.9616,48.1824667 C43.3137667,47.9709667 42.8139333,47.6503 42.2852667,47.3108 C41.9052667,47.0578 41.5114333,46.8259667 41.1056,46.6174667 C40.6771,46.3899667 40.2002667,46.2691333 39.7146,46.2651333 C39.3924333,46.2733 39.0711,46.3113 38.7554333,46.3786333 C38.1927667,46.4934667 37.6192667,46.5446333 37.0452667,46.5306333 L36.9596,46.5283 C34.5496,46.4681333 33.0527667,46.0459667 32.5109333,45.2739667 C32.3844333,45.0928 32.4126,44.9008 32.6996,43.9869667 C33.0197667,43.0251333 33.2524333,42.0366333 33.3964333,41.0334667 C33.8139333,38.0328 34.0912667,35.9006333 34.1461,33.6891333 C34.2029333,31.3823 33.4944333,28.5678 32.6329333,25.3944667 C32.4642667,24.7721333 32.2906,24.2313 32.1376,23.7538 C31.6981,22.3828 31.5164333,21.7524667 31.8244333,21.1663 C32.1794333,20.4916333 33.7336,19.9804667 34.7781,20.0011333 C36.3754333,20.0374667 38.1846,20.0791333 40.2714333,21.4724667 C43.0772667,23.3458 46.6851,27.2059667 47.9421,34.9576333 C48.7857667,40.1604667 48.1217667,44.7363 47.4072667,46.1903 M25.8371,31.6666333 C25.8371,31.2068 25.4637667,30.8333 25.0037667,30.8333 C24.5437667,30.8333 24.1704333,31.2068 24.1704333,31.6666333 C24.1704333,33.8943 21.2006,35.7796333 17.6524333,35.8311333 C17.5877667,35.0873 17.5456,34.3754667 17.5271,33.6474667 C17.5184333,32.9833 17.5619333,32.3193 17.6577667,31.6618 C20.8036,31.5609667 23.3371,28.3811333 23.3371,24.4839667 L23.3371,9.30546667 C23.3371,8.45213333 24.0847667,8.31313333 25.0037667,8.31313333 C25.9229333,8.31313333 26.6704333,8.45213333 26.6704333,9.30546667 L26.6704333,24.4839667 C26.6704333,28.3811333 29.2041,31.5609667 32.3497667,31.6618 C32.4452667,32.3193 32.4892667,32.9833 32.4799333,33.6474667 C32.4619333,34.3754667 32.4197667,35.0873 32.3551,35.8311333 C28.8069333,35.7796333 25.8371,33.8943 25.8371,31.6666333 M17.4967667,45.2734667 C16.9552667,46.0459667 15.4584333,46.4681333 13.0479333,46.5276333 L12.9627667,46.5299667 C12.3887667,46.5439667 11.8147667,46.4929667 11.2526,46.3781333 C10.5474333,46.2504667 9.88126667,46.1296333 8.90243333,46.6168 C8.4966,46.8259667 8.10276667,47.0571333 7.72243333,47.3108 C7.1936,47.6498 6.69376667,47.9704667 6.04593333,48.1819667 L6.03576667,48.1853 C5.49526667,48.3783 4.90443333,48.3799667 4.3631,48.1906333 C3.39243333,47.8386333 2.93843333,46.8923 2.6666,46.3269667 C2.64326667,46.2781333 2.62093333,46.2321333 2.60026667,46.1896333 C2.06876667,45.1079667 1.5656,42.2974667 1.68993333,38.7868 C2.62826667,39.6506333 3.9956,40.7603 5.50593333,41.4991333 C6.92343333,42.1924667 8.43143333,42.5391333 10.0176,42.5391333 C11.3787667,42.5391333 12.7976,42.2838 14.2654333,41.7726333 C15.2996,41.4128 16.0394333,41.0584667 16.5704333,40.7346333 C16.5842667,40.8338 16.5977667,40.9316333 16.6119333,41.0331333 C16.7551,42.0366333 16.9882667,43.0251333 17.3084333,43.9864667 C17.5954333,44.9001333 17.6237667,45.0921333 17.4967667,45.2734667 M16.3242667,38.9159667 L16.2987667,38.9076333 C16.3051,38.8881333 16.3111,38.8723 16.3167667,38.8584667 C16.3194333,38.8778 16.3216,38.8964667 16.3242667,38.9159667 M9.73576667,21.4719667 C11.8224333,20.0786333 13.6322667,20.0374667 15.2289333,20.0004667 C16.2742667,19.9794667 17.8281,20.4916333 18.1831,21.1663 C18.4906,21.7524667 18.3094333,22.3828 17.8706,23.7531333 C17.7169333,24.2306333 17.5439333,24.7721333 17.3747667,25.3939667 C16.5131,28.5673 15.8046,31.3818 15.8616,33.6886333 C15.9021,35.3214667 16.0642667,36.9123 16.3144333,38.8404667 C16.1934333,38.9816333 15.6257667,39.5344667 13.7176,40.1988 C10.9739333,41.1539667 8.45793333,41.0874667 6.23826667,40.0019667 C4.22276667,39.0161333 2.41576667,37.2036333 1.84576667,36.6003 C1.90343333,36.0616333 1.97526667,35.5131333 2.06543333,34.9571333 C3.32193333,27.2059667 6.92976667,23.3453 9.73576667,21.4719667 M49.5871,34.6906333 C48.2346,26.3469667 44.2779333,22.1436333 41.1974333,20.0858 C38.7077667,18.4233 36.5499333,18.3744667 34.8166,18.3344667 C34.0066,18.3333 33.2031,18.4783 32.4447667,18.7631333 C31.4351,19.1401333 30.7107667,19.7031333 30.3487667,20.3916333 C29.7031,21.6206333 30.0771,22.7874667 30.5507667,24.2626333 C30.6982667,24.7233 30.8659333,25.2453 31.0249333,25.8306333 C31.4242667,27.3024667 31.7887667,28.6903 32.0536,29.9674667 C29.9674333,29.6689667 28.3371,27.3241333 28.3371,24.4839667 L28.3371,9.30546667 C28.3371,7.53313333 26.8417667,6.64646667 25.0037667,6.64646667 C23.1657667,6.64646667 21.6704333,7.53313333 21.6704333,9.30546667 L21.6704333,24.4839667 C21.6704333,27.3241333 20.0402667,29.6689667 17.9541,29.9674667 C18.2187667,28.6896333 18.5834333,27.3024667 18.9826,25.8306333 C19.1416,25.2453 19.3092667,24.7228 19.4569333,24.2626333 C19.9306,22.7864667 20.3044333,21.6206333 19.6587667,20.3911333 C18.8856,18.9198 16.5809333,18.3008 15.1909333,18.3344667 C13.4576,18.3741333 11.2997667,18.4233 8.81026667,20.0858 C5.72976667,22.1429667 1.77293333,26.3469667 0.420433333,34.6906333 C-0.4379,39.9854667 0.132433333,44.9456333 1.1041,46.9248 C1.1226,46.9629667 1.1426,47.0041333 1.16426667,47.0484667 C1.4951,47.7381333 2.18426667,49.1731333 3.79393333,49.7568 C4.23226667,49.9174667 4.6956,49.9999667 5.16226667,49.9999667 C5.6391,49.9968 6.11176667,49.9179667 6.5636,49.7666333 C7.41376667,49.4883 8.02843333,49.0944667 8.62193333,48.7136333 C8.95193333,48.4933 9.2931,48.2919667 9.6446,48.1093 C10.1281,47.8683 10.3532667,47.9094667 10.9549333,48.0186333 C11.6297667,48.1548 12.3177667,48.2146333 13.0056,48.1966333 L13.0886,48.1943 C14.3122667,48.1641333 17.5619333,48.0831333 18.8607667,46.2303 C19.4812667,45.3449667 19.2111,44.4846333 18.8974333,43.4873 C18.6052667,42.6139667 18.3924333,41.7159667 18.2617667,40.8041333 C18.0876,39.5514667 17.9406,38.4759667 17.8249333,37.4951333 C19.8731,37.4419667 21.7962667,36.8799667 23.2706,35.8968 C23.9469333,35.4584667 24.5356,34.8963 25.0037667,34.2393 C25.4721,34.8958 26.0601,35.4578 26.7371,35.8961333 C28.2112667,36.8793 30.1344333,37.4414667 32.1821,37.4944667 C32.0666,38.4754667 31.9199333,39.5508 31.7457667,40.8034667 C31.6146,41.7154667 31.4019333,42.6133 31.1094333,43.4868 C30.7964333,44.4841333 30.5262667,45.3449667 31.1467667,46.2303 C32.4456,48.0826333 35.6951,48.1634667 36.9182667,48.1938 L37.0019333,48.1961333 C37.6897667,48.2134667 38.3777667,48.1536333 39.0521,48.0181333 C39.6537667,47.9091333 39.8791,47.8683 40.3622667,48.1088 C40.7146,48.2914667 41.0557667,48.4933 41.3851,48.7131333 C41.9792667,49.0941333 42.5932667,49.4883 43.4531,49.7694667 C43.9012667,49.9191333 44.3706,49.9973 44.8426,49.9999667 C45.3102667,49.9999667 45.7741,49.9179667 46.2136,49.7574667 C47.8234333,49.1731333 48.5124333,47.7381333 48.8432667,47.0491333 C48.8644333,47.0048 48.8851,46.9629667 48.9036,46.9248 C49.8757667,44.9456333 50.4454333,39.9854667 49.5871,34.6906333" id="Fill-3"></path>
            <path d="M12.76355,23.9107667 C12.9812167,23.9107667 13.1582167,24.0877667 13.1582167,24.3054333 C13.1582167,24.5229333 12.9812167,24.6999333 12.76355,24.6999333 C12.5458833,24.6999333 12.36905,24.5229333 12.36905,24.3054333 C12.36905,24.0877667 12.5458833,23.9107667 12.76355,23.9107667 M12.76355,26.3666 C13.9002167,26.3666 14.8248833,25.4419333 14.8248833,24.3054333 C14.8248833,23.1687667 13.9002167,22.2441 12.76355,22.2441 C11.62705,22.2441 10.7023833,23.1687667 10.7023833,24.3054333 C10.7023833,25.4419333 11.62705,26.3666 12.76355,26.3666" id="Fill-6"></path>
            <path d="M12.28535,35.3615333 C12.63335,35.3615333 12.9165167,35.6447 12.9165167,35.9927 C12.9165167,36.3407 12.63335,36.6237 12.28535,36.6237 C11.93735,36.6237 11.6541833,36.3407 11.6541833,35.9927 C11.6541833,35.6447 11.93735,35.3615333 12.28535,35.3615333 M12.28535,38.2903667 C13.5525167,38.2903667 14.5831833,37.2597 14.5831833,35.9927 C14.5831833,34.7257 13.5525167,33.6948667 12.28535,33.6948667 C11.0181833,33.6948667 9.98751667,34.7257 9.98751667,35.9927 C9.98751667,37.2597 11.0181833,38.2903667 12.28535,38.2903667" id="Fill-8"></path>
            <path d="M7.11266667,29.8115667 C7.78633333,29.8115667 8.33433333,30.3595667 8.33433333,31.0330667 C8.33433333,31.7067333 7.78633333,32.2547333 7.11266667,32.2547333 C6.43916667,32.2547333 5.89116667,31.7067333 5.89116667,31.0330667 C5.89116667,30.3595667 6.43916667,29.8115667 7.11266667,29.8115667 M7.11266667,33.9214 C8.70533333,33.9214 10.001,32.6257333 10.001,31.0330667 C10.001,29.4404 8.70533333,28.1449 7.11266667,28.1449 C5.52,28.1449 4.2245,29.4404 4.2245,31.0330667 C4.2245,32.6257333 5.52,33.9214 7.11266667,33.9214" id="Fill-10"></path>
        </g>
    </g>
</svg>