<?xml version="1.0" encoding="UTF-8"?>
<svg width="30px" height="30px" viewBox="0 0 30 30" version="1.1" xmlns="http://www.w3.org/2000/svg" xmlns:xlink="http://www.w3.org/1999/xlink">
    <title>moon_darkUI</title>
    <g id="moon_darkUI" stroke="none" stroke-width="1" fill="none" fill-rule="evenodd">
        <g fill="#547AE3">
            <path d="M12.4477095,2.00184122 C10.2031824,4.33038851 8.9672027,7.36474662 8.9672027,10.5460642 C8.9672027,17.3107601 14.4974392,22.8143412 21.2948716,22.8143412 C23.0510878,22.8143412 24.8285878,22.4220101 26.4353108,21.6799155 L27.0277095,21.4062669 L26.6945676,21.9674493 C24.2569662,26.0731926 19.7985203,28.6238007 15.0594324,28.6238007 C7.51443243,28.6238007 1.37618919,22.5122128 1.37618919,15.0000507 C1.37618919,8.581875 5.95372297,2.97278716 12.2604122,1.66271959 L12.9031824,1.52913851 L12.4477095,2.00184122 Z M15.1572365,0.00430743243 C15.1300743,0.00238175676 15.0978446,5.06756757e-05 15.0594324,5.06756757e-05 C11.0624392,5.06756757e-05 7.28892568,1.56309122 4.43406081,4.40143581 C1.57473649,7.24413851 4.05405405e-05,11.008125 4.05405405e-05,15.0000507 C4.05405405e-05,18.9910642 1.57422973,22.7546453 4.43284459,25.5974493 C7.28760811,28.4365034 11.061527,30.0000507 15.0594324,30.0000507 C21.4531824,30.0000507 27.1373716,25.8944088 29.2041284,19.7836318 C29.301527,19.4954899 29.1954122,19.1727872 28.9460878,18.9989696 C28.6966622,18.8247466 28.3572365,18.8367061 28.1204797,19.0274493 C26.1634865,20.6044764 23.8032162,21.4381926 21.2948716,21.4381926 C15.2562568,21.4381926 10.3433514,16.5520439 10.3433514,10.5460642 C10.3433514,6.83255068 12.3206149,3.27967905 15.5035541,1.27423986 C15.7607838,1.11217905 15.882,0.794746622 15.7982838,0.502550676 C15.715277,0.21339527 15.4577432,0.013125 15.1572365,0.00430743243 L15.1572365,0.00430743243 Z" id="Fill-1"></path>
            <path d="M21.4328412,6.20301689 C21.1063885,6.45183446 20.8150034,6.74747635 20.5668953,7.08183446 L20.404125,7.30115878 L20.2412534,7.08183446 C19.9934493,6.74778041 19.7020642,6.45203716 19.3753074,6.20301689 L19.1616588,6.04004392 L19.3771318,5.87930068 C19.7050034,5.63473986 19.9959831,5.3446723 20.2420642,5.01720608 L20.404125,4.80142905 L20.5661858,5.01720608 C20.8119628,5.34446959 21.1029426,5.63453716 21.4310169,5.87930068 L21.6465912,6.04004392 L21.4328412,6.20301689 Z M23.9672331,5.3446723 C22.3818953,5.3446723 21.0921993,4.05497635 21.0921993,2.46963851 C21.0921993,2.09017905 20.7834831,1.78156419 20.404125,1.78156419 C20.0246655,1.78156419 19.7160507,2.09017905 19.7160507,2.46963851 C19.7160507,4.05497635 18.4262534,5.3446723 16.8409155,5.3446723 C16.4615574,5.3446723 16.1528412,5.65338851 16.1528412,6.03274662 C16.1528412,6.41220608 16.4615574,6.72082095 16.8409155,6.72082095 C18.3993953,6.72082095 19.7160507,8.06463851 19.7160507,9.65534797 C19.7160507,10.0347061 20.0246655,10.3434223 20.404125,10.3434223 C20.7834831,10.3434223 21.0921993,10.0347061 21.0921993,9.65534797 C21.0921993,8.06463851 22.4087534,6.72082095 23.9672331,6.72082095 C24.3465912,6.72082095 24.6553074,6.41220608 24.6553074,6.03274662 C24.6553074,5.65338851 24.3465912,5.3446723 23.9672331,5.3446723 L23.9672331,5.3446723 Z" id="Fill-4"></path>
        </g>
    </g>
</svg>