<?xml version="1.0" encoding="UTF-8"?>
<svg width="45px" height="50px" viewBox="0 0 45 50" version="1.1" xmlns="http://www.w3.org/2000/svg" xmlns:xlink="http://www.w3.org/1999/xlink">
    <title>icon_patient-new</title>
    <g id="icon_patient-new" stroke="none" stroke-width="1" fill="none" fill-rule="evenodd">
        <g id="Group-12" fill="#526FDC">
            <path d="M8.69666667,24.1281273 L5.3211985,18.9608989 L5.3211985,16.7513483 L6.88561798,16.4393633 C10.6436704,15.686367 13.9255056,13.6322472 16.2256929,10.6114607 C19.544794,13.6305618 23.7755056,15.5408614 28.247603,16.0238202 L35.8333708,16.8442322 L35.8333708,19.0502247 L32.5161423,24.1281273 L8.69666667,24.1281273 Z M8.91764045,32.9886142 C7.33187266,30.9050936 6.24498127,28.5050936 5.70752809,26.1725094 C5.45134831,25.0354307 5.3211985,23.8386142 5.3211985,22.6131461 L5.3211985,21.8667041 L7.47850187,25.1695131 C7.49573034,25.2217603 7.51670412,25.2732584 7.54498127,25.3219476 C7.55977528,25.3477903 9.03449438,27.9346816 9.03449438,31.2910487 C9.03449438,31.8549064 8.99498127,32.4221348 8.91764045,32.9886142 L8.91764045,32.9886142 Z M5.3211985,13.5440449 C5.3211985,5.40397004 13.2288764,1.69516854 20.577191,1.69516854 C27.9255056,1.69516854 35.8333708,5.40397004 35.8333708,13.5440449 L35.8333708,15.1393633 L28.4307491,14.339176 C24.0131461,13.8610861 19.8464794,11.8659551 16.7037828,8.72307116 C16.5241948,8.54348315 16.2547191,8.45359551 16.0204494,8.4805618 C15.7682022,8.50453184 15.539176,8.64161049 15.3985393,8.85340824 C13.3371161,11.9457303 10.1959176,14.047603 6.55490637,14.7764419 L5.3211985,15.0232584 L5.3211985,13.5440449 Z M1.69498127,22.9859925 C1.69498127,21.7949813 2.51876404,20.7929213 3.62588015,20.5182022 L3.62588015,22.6131461 C3.62588015,23.5944195 3.70284644,24.5603371 3.85378277,25.4996629 C2.63355805,25.3138951 1.69498127,24.2571536 1.69498127,22.9859925 L1.69498127,22.9859925 Z M37.5285019,22.6131461 L37.5285019,20.686367 C38.3899251,21.0938577 38.9878652,21.9711985 38.9878652,22.9859925 C38.9878652,24.0805618 38.291985,25.0163296 37.3197004,25.373633 C37.4573408,24.4747566 37.5285019,23.5509738 37.5285019,22.6131461 L37.5285019,22.6131461 Z M23.4286891,39.0509738 C23.4286891,38.9344944 23.4335581,38.8191386 23.4374906,38.7035955 C22.5283146,38.8880524 21.5749438,38.9878652 20.577191,38.9878652 C16.2859925,38.9878652 12.7981648,37.1603371 10.2455431,34.5329963 C10.4953558,33.4575281 10.623633,32.3698876 10.623633,31.2910487 C10.623633,28.9168914 9.98599251,26.9150187 9.48973783,25.7172659 L31.703221,25.7172659 C31.359588,26.5826217 30.9283146,27.8573408 30.6925468,29.2820599 C31.2365543,29.118764 31.8000375,29.0007865 32.3783146,28.93 C32.7406742,27.241236 33.3612734,25.8489139 33.5635206,25.4211985 C33.5801873,25.4005993 33.5966667,25.38 33.6114607,25.3571536 L35.8333708,21.9562172 L35.8333708,22.6131461 C35.8333708,23.8386142 35.7030337,25.0354307 35.4468539,26.1676404 C35.2376779,27.0745693 34.9446067,27.9914232 34.5728839,28.8961049 C35.1556554,28.9496629 35.7241948,29.0520974 36.2747566,29.1996629 C36.5346816,28.5333708 36.7573408,27.8627715 36.9374906,27.1944195 C39.0434831,26.9494757 40.6829963,25.1552809 40.6829963,22.9859925 C40.6829963,21.0240075 39.3423596,19.3689513 37.5285019,18.8889888 L37.5285019,13.5440449 C37.5285019,4.23786517 28.7408614,3.74531835e-05 20.577191,3.74531835e-05 C12.4137079,3.74531835e-05 3.62588015,4.23786517 3.62588015,13.5440449 L3.62588015,18.7929213 C1.57756554,19.0904869 3.74531835e-05,20.8575281 3.74531835e-05,22.9859925 C3.74531835e-05,25.3172659 1.89310861,27.2161423 4.22400749,27.2234457 C4.98280899,30.0232584 6.45284644,32.8661423 8.56483146,35.2137079 C8.63617978,35.4253184 8.79554307,35.603221 9.01183521,35.6931086 C11.8528464,38.6324345 15.7571536,40.6829963 20.577191,40.6829963 C21.601161,40.6829963 22.5818727,40.5867416 23.5219476,40.4127715 C23.462397,39.9670787 23.4286891,39.5131461 23.4286891,39.0509738 L23.4286891,39.0509738 Z" id="Fill-1"></path>
            <path d="M12.7133895,22.0366667 C12.2476592,22.0366667 11.8660112,21.6567041 11.8660112,21.1891011 C11.8660112,20.7214981 12.2476592,20.3415356 12.7133895,20.3415356 C13.1793071,20.3415356 13.5609551,20.7214981 13.5609551,21.1891011 C13.5609551,21.6567041 13.1793071,22.0366667 12.7133895,22.0366667 M12.7133895,18.6464045 C11.3118914,18.6464045 10.1708801,19.7874157 10.1708801,21.1891011 C10.1708801,22.5907865 11.3118914,23.7317978 12.7133895,23.7317978 C14.1150749,23.7317978 15.2560861,22.5907865 15.2560861,21.1891011 C15.2560861,19.7874157 14.1150749,18.6464045 12.7133895,18.6464045" id="Fill-3"></path>
            <path d="M27.9695131,22.0366667 C27.5037828,22.0366667 27.1221348,21.6567041 27.1221348,21.1891011 C27.1221348,20.7214981 27.5037828,20.3415356 27.9695131,20.3415356 C28.4354307,20.3415356 28.8170787,20.7214981 28.8170787,21.1891011 C28.8170787,21.6567041 28.4354307,22.0366667 27.9695131,22.0366667 M27.9695131,18.6464045 C26.568015,18.6464045 25.4270037,19.7874157 25.4270037,21.1891011 C25.4270037,22.5907865 26.568015,23.7317978 27.9695131,23.7317978 C29.3711985,23.7317978 30.5122097,22.5907865 30.5122097,21.1891011 C30.5122097,19.7874157 29.3711985,18.6464045 27.9695131,18.6464045" id="Fill-5"></path>
            <path d="M33.6288202,29.6000936 C28.4175843,29.6000936 24.1776966,33.839794 24.1776966,39.05103 C24.1776966,44.2622659 28.4175843,48.5019663 33.6288202,48.5019663 C38.8400562,48.5019663 43.0797566,44.2622659 43.0797566,39.05103 C43.0797566,33.839794 38.8400562,29.6000936 33.6288202,29.6000936 M33.6288202,50.0000936 C27.591367,50.0000936 22.6795693,45.0882959 22.6795693,39.05103 C22.6795693,33.013764 27.591367,28.1019663 33.6288202,28.1019663 C39.6660861,28.1019663 44.5778839,33.013764 44.5778839,39.05103 C44.5778839,45.0882959 39.6660861,50.0000936 33.6288202,50.0000936" id="Fill-7"></path>
            <path d="M37.0524719,38.0078464 L34.6322472,38.0078464 L34.6322472,35.5876217 C34.6322472,35.0149625 34.168015,34.5505431 33.5951685,34.5505431 C33.0223221,34.5505431 32.5579026,35.0149625 32.5579026,35.5876217 L32.5579026,38.0078464 L30.1378652,38.0078464 C29.565206,38.0078464 29.1007865,38.4720787 29.1007865,39.0449251 C29.1007865,39.6177715 29.565206,40.082191 30.1378652,40.082191 L32.5579026,40.082191 L32.5579026,42.5022285 C32.5579026,43.0750749 33.0223221,43.5393071 33.5951685,43.5393071 C34.168015,43.5393071 34.6322472,43.0750749 34.6322472,42.5022285 L34.6322472,40.082191 L37.0524719,40.082191 C37.6253184,40.082191 38.0895506,39.6177715 38.0895506,39.0449251 C38.0895506,38.4720787 37.6253184,38.0078464 37.0524719,38.0078464" id="Fill-10"></path>
        </g>
    </g>
</svg>