<?xml version="1.0" encoding="UTF-8"?>
<svg width="47px" height="50px" viewBox="0 0 47 50" version="1.1" xmlns="http://www.w3.org/2000/svg" xmlns:xlink="http://www.w3.org/1999/xlink">
    <title>icon_patient-previous</title>
    <g id="icon_patient-previous" stroke="none" stroke-width="1" fill="none" fill-rule="evenodd">
        <g id="Group-12" fill="#526FDC">
            <path d="M42.887809,34.7011236 C43.0254494,33.802809 43.0964232,32.879588 43.0964232,31.9425094 L43.0964232,30.0168539 C43.9574719,30.4241573 44.5548502,31.3011236 44.5548502,32.3151685 C44.5548502,33.4089888 43.8595318,34.3440075 42.887809,34.7011236 L42.887809,34.7011236 Z M41.4024157,28.3820225 L38.0876217,33.4565543 L14.2844382,33.4565543 L10.91103,28.2926966 L10.91103,26.0846442 L12.4747004,25.7728464 C16.2301311,25.0205993 19.5097191,22.967603 21.8084082,19.9490637 C25.1250749,22.9659176 29.3531648,24.8750936 33.8220787,25.3576779 L41.4024157,26.1773408 L41.4024157,28.3820225 Z M41.4024157,31.9425094 C41.4024157,33.1670412 41.2722659,34.3631086 41.0162734,35.4945693 C40.4803184,37.8192884 39.3996067,40.2106742 37.823764,42.2885768 C37.7288202,41.7009363 37.6795693,41.1400749 37.6795693,40.6144195 C37.6795693,37.9891386 38.8424906,35.3653558 39.1342509,34.7486891 C39.1509176,34.7280899 39.167397,34.7073034 39.182191,34.6846442 L41.4024157,31.2859551 L41.4024157,31.9425094 Z M36.4424906,43.4998127 C36.4651498,43.6 36.5065356,43.6906367 36.56103,43.7705993 C34.0035393,46.441573 30.4902434,48.3059925 26.1567228,48.3059925 C21.8685206,48.3059925 18.3833146,46.4797753 15.8323783,43.8541199 C16.0820037,42.7794007 16.2100936,41.6926966 16.2100936,40.6144195 C16.2100936,38.2417603 15.573015,36.241573 15.0771348,35.0445693 L37.2752622,35.0445693 C36.7756367,36.3018727 36.0915543,38.4234082 36.0915543,40.6144195 C36.0915543,41.5095506 36.2095318,42.4805243 36.4424906,43.4998127 L36.4424906,43.4998127 Z M14.5052247,42.3108614 C12.9207678,40.228839 11.8346255,37.8303371 11.2973596,35.4996255 C11.0411798,34.3631086 10.91103,33.1670412 10.91103,31.9425094 L10.91103,31.1966292 L13.0672097,34.4970037 C13.0842509,34.5492509 13.1052247,34.6007491 13.1333146,34.6494382 C13.1482959,34.6750936 14.6220787,37.2604869 14.6220787,40.6144195 C14.6220787,41.1779026 14.5825655,41.7445693 14.5052247,42.3108614 L14.5052247,42.3108614 Z M7.28780899,32.3151685 C7.28780899,31.1247191 8.11065543,30.1235955 9.21702247,29.8490637 L9.21702247,31.9425094 C9.21702247,32.9230337 9.29398876,33.8882022 9.44473783,34.8269663 C8.22544944,34.6413858 7.28780899,33.5853933 7.28780899,32.3151685 L7.28780899,32.3151685 Z M43.0964232,28.2209738 L43.0964232,22.879588 C43.0964232,13.5797753 34.3149625,9.34475655 26.1567228,9.34475655 C24.456161,9.34475655 22.728633,9.52958801 21.05897,9.90524345 C21.1069101,10.3065543 21.1346255,10.7142322 21.1346255,11.1286517 C21.1346255,11.2975655 21.1299438,11.4651685 21.1218914,11.6322097 C22.7615918,11.2340824 24.473764,11.038764 26.1567228,11.038764 C33.4999813,11.038764 41.4024157,14.7451311 41.4024157,22.879588 L41.4024157,24.4737828 L34.0048502,23.6741573 C29.5904307,23.1962547 25.4267603,21.2026217 22.2859363,18.061985 C22.1065356,17.882397 21.8374345,17.7926966 21.6033521,17.8196629 C21.3509176,17.8434457 21.1222659,17.9803371 20.9816292,18.1921348 C18.9217041,21.282397 15.7827528,23.3829588 12.144176,24.111236 L10.91103,24.3578652 L10.91103,22.879588 C10.91103,22.3400749 10.946985,21.8205993 11.0140262,21.3198502 C10.9896816,21.3198502 10.9658989,21.3217228 10.9415543,21.3217228 C10.3889326,21.3217228 9.84717228,21.2762172 9.31814607,21.1913858 C9.25166667,21.7344569 9.21702247,22.2970037 9.21702247,22.879588 L9.21702247,28.1249064 C7.17039326,28.4222846 5.5938015,30.188015 5.5938015,32.3151685 C5.5938015,34.6445693 7.4855618,36.5421348 9.81496255,36.5496255 C10.573015,39.3475655 12.0419288,42.1883895 14.1527903,44.5344569 C14.2241386,44.7458801 14.3833146,44.9235955 14.5992322,45.0134831 C17.4387453,47.9507491 21.3402434,50 26.1567228,50 C34.9718914,50 40.7243258,43.135206 42.5057865,36.5205993 C44.6104682,36.2758427 46.2488577,34.4829588 46.2488577,32.3151685 C46.2488577,30.3544944 44.9091573,28.7005618 43.0964232,28.2209738 L43.0964232,28.2209738 Z" id="Fill-1"></path>
            <path d="M18.2985393,31.366367 C17.832809,31.366367 17.4515356,30.986779 17.4515356,30.5195506 C17.4515356,30.0519476 17.832809,29.6723596 18.2985393,29.6723596 C18.7640824,29.6723596 19.1453558,30.0519476 19.1453558,30.5195506 C19.1453558,30.986779 18.7640824,31.366367 18.2985393,31.366367 M18.2985393,27.9783521 C16.8977903,27.9783521 15.7575281,29.1186142 15.7575281,30.5195506 C15.7575281,31.9201124 16.8977903,33.0603745 18.2985393,33.0603745 C19.6991011,33.0603745 20.8393633,31.9201124 20.8393633,30.5195506 C20.8393633,29.1186142 19.6991011,27.9783521 18.2985393,27.9783521" id="Fill-3"></path>
            <path d="M33.5440824,31.366367 C33.0785393,31.366367 32.6972659,30.986779 32.6972659,30.5195506 C32.6972659,30.0519476 33.0785393,29.6723596 33.5440824,29.6723596 C34.0098127,29.6723596 34.3910861,30.0519476 34.3910861,30.5195506 C34.3910861,30.986779 34.0098127,31.366367 33.5440824,31.366367 M33.5440824,27.9783521 C32.1435206,27.9783521 31.0032584,29.1186142 31.0032584,30.5195506 C31.0032584,31.9201124 32.1435206,33.0603745 33.5440824,33.0603745 C34.9448315,33.0603745 36.0850936,31.9201124 36.0850936,30.5195506 C36.0850936,29.1186142 34.9448315,27.9783521 33.5440824,27.9783521" id="Fill-5"></path>
            <path d="M10.941779,1.49709738 C5.73391386,1.49709738 1.49702247,5.7338015 1.49702247,10.9414794 C1.49702247,16.1491573 5.73391386,20.3860487 10.941779,20.3860487 C16.1494569,20.3860487 20.386161,16.1491573 20.386161,10.9414794 C20.386161,5.7338015 16.1494569,1.49709738 10.941779,1.49709738 M10.941779,21.8830524 C4.90825843,21.8830524 1.87265918e-05,16.9746255 1.87265918e-05,10.9414794 C1.87265918e-05,4.90833333 4.90825843,-9.36329588e-05 10.941779,-9.36329588e-05 C16.9749251,-9.36329588e-05 21.8833521,4.90833333 21.8833521,10.9414794 C21.8833521,16.9746255 16.9749251,21.8830524 10.941779,21.8830524" id="Fill-7"></path>
            <path d="M7.95923221,12.6102434 L7.95923221,13.3594944 L5.25679775,10.6572472 C5.08432584,10.4847753 5.08432584,10.2036891 5.25679775,10.0312172 L7.95923221,7.32878277 L7.95923221,8.07822097 C7.95923221,8.51099251 8.3114794,8.86305243 8.74406367,8.86305243 C11.8107303,8.86305243 14.5399438,10.5591199 15.909794,13.2016292 C15.6036142,12.9924532 15.2856367,12.8020037 14.9577341,12.631779 C13.0223408,11.6267228 10.7219663,11.3360861 8.56353933,11.846573 C8.20773408,11.9308427 7.95923221,12.2448876 7.95923221,12.6102434 M18.3191573,15.7596816 C17.7590449,11.1862734 14.0905056,7.69132959 9.5290824,7.32466292 L9.5290824,6.66155431 C9.5290824,5.68140449 8.94949438,5.24282772 8.37514981,5.24282772 C8.01035581,5.24282772 7.65586142,5.41249064 7.32102996,5.74713483 L4.14687266,8.92129213 C3.36241573,9.70593633 3.36222846,10.9825281 4.14687266,11.7673596 L7.32102996,14.9415169 C7.65567416,15.276161 8.01035581,15.445824 8.37514981,15.445824 C8.94949438,15.445824 9.5290824,15.0070599 9.5290824,14.0269101 L9.5290824,13.2561236 C9.91822097,13.1960112 10.3112921,13.1656742 10.7008052,13.1656742 C13.1416292,13.1656742 15.4616667,14.3443258 16.9067978,16.3190449 C17.054176,16.5201685 17.2910674,16.640206 17.5403184,16.640206 C17.6395693,16.640206 17.736573,16.6216667 17.8290824,16.5849625 C18.1612921,16.4535019 18.3627903,16.114176 18.3191573,15.7596816" id="Fill-10"></path>
        </g>
    </g>
</svg>