<?xml version="1.0" encoding="UTF-8"?>
<svg width="30px" height="30px" viewBox="0 0 30 30" version="1.1" xmlns="http://www.w3.org/2000/svg" xmlns:xlink="http://www.w3.org/1999/xlink">
    <title>sun_blue</title>
    <g id="sun_blue" stroke="none" stroke-width="1" fill="none" fill-rule="evenodd">
        <g fill="#547AE3">
            <path d="M19.31343,19.31343 C18.19343,20.43353 16.62123,21.07603 15.00003,21.07603 C13.37883,21.07603 11.80683,20.43353 10.68663,19.31343 C9.56653,18.19363 8.92403,16.62133 8.92403,15.00003 C8.92403,13.35493 9.55003,11.82303 10.68663,10.68643 C11.80663,9.56643 13.37883,8.92403 15.00003,8.92403 C16.62123,8.92403 18.19353,9.56643 19.31343,10.68643 C20.43353,11.80663 21.07603,13.37893 21.07603,15.00003 C21.07603,16.62113 20.43353,18.19343 19.31343,19.31343 L19.31343,19.31343 Z M20.16263,9.83753 C18.79073,8.46563 16.90913,7.67883 15.00003,7.67883 C13.05183,7.67883 11.17183,8.46403 9.84193,9.83293 C8.46563,11.20933 7.67883,13.09093 7.67883,15.00003 C7.67883,16.90893 8.46563,18.79063 9.83743,20.16263 C11.20933,21.53443 13.09093,22.32123 15.00003,22.32123 C16.94823,22.32123 18.82813,21.53613 20.15813,20.16713 C21.53443,18.79063 22.32123,16.90893 22.32123,15.00003 C22.32123,13.05173 21.53613,11.17173 20.16713,9.84193 L20.16263,9.83753 Z" id="Fill-1"></path>
            <path d="M29.3774,14.37739 L26.2324,14.37739 C25.9007,14.37739 25.6098,14.66829 25.6098,14.99999 C25.6098,15.33169 25.9007,15.62259 26.2324,15.62259 L29.3774,15.62259 C29.709,15.62259 30,15.33169 30,14.99999 C30,14.66829 29.709,14.37739 29.3774,14.37739" id="Fill-3"></path>
            <path d="M15.62261,29.37739 L15.62261,26.23239 C15.62261,25.90069 15.33171,25.60979 15.00001,25.60979 C14.66841,25.60979 14.37751,25.90069 14.37751,26.23239 L14.37751,29.37739 C14.37751,29.70909 14.66841,29.99999 15.00001,29.99999 C15.33171,29.99999 15.62261,29.70909 15.62261,29.37739" id="Fill-5"></path>
            <path d="M24.74585,25.59497 C24.98405,25.83297 25.35695,25.83317 25.59495,25.59487 C25.83295,25.35677 25.83295,24.98397 25.59495,24.74587 L23.33255,22.48267 C23.24305,22.38307 23.10925,22.32607 22.95595,22.32197 C22.95025,22.32187 22.94455,22.32177 22.93885,22.32177 C22.77215,22.32177 22.61285,22.38597 22.49935,22.49937 C22.26145,22.73747 22.26145,23.11037 22.49935,23.34837 L24.74585,25.59497 Z" id="Fill-7"></path>
            <path d="M15.62261,3.76763 L15.62261,0.62263 C15.62261,0.29093 15.33171,3e-05 15.00001,3e-05 C14.66841,3e-05 14.37751,0.29093 14.37751,0.62263 L14.37751,3.76763 C14.37751,4.09933 14.66841,4.39023 15.00001,4.39023 C15.33171,4.39023 15.62261,4.09933 15.62261,3.76763" id="Fill-9"></path>
            <path d="M24.78667,4.40513 L22.54027,6.65153 C22.30217,6.88963 22.30217,7.26263 22.54027,7.50063 L22.55607,7.51743 C22.64587,7.61693 22.77957,7.67403 22.93287,7.67803 C23.10377,7.68133 23.27197,7.61783 23.38937,7.50063 L25.63577,5.25413 C25.75047,5.13953 25.81347,4.98883 25.81347,4.82963 C25.81347,4.67043 25.75047,4.51973 25.63577,4.40513 C25.51677,4.28613 25.36397,4.22653 25.21127,4.22653 C25.05857,4.22653 24.90567,4.28613 24.78667,4.40513" id="Fill-11"></path>
            <path d="M0.62261,14.37739 C0.29091,14.37739 -9e-05,14.66829 -9e-05,14.99999 C-9e-05,15.30609 0.23291,15.62259 0.62261,15.62259 L3.76771,15.62259 C4.09951,15.62259 4.39031,15.33169 4.39031,14.99999 C4.39031,14.66829 4.09951,14.37739 3.76771,14.37739 L0.62261,14.37739 Z" id="Fill-13"></path>
            <path d="M5.21343,25.59487 L7.45983,23.34837 C7.57443,23.23387 7.63743,23.08317 7.63743,22.92397 C7.63743,22.76477 7.57443,22.61387 7.45983,22.49937 L7.44393,22.48267 C7.35433,22.38307 7.22053,22.32607 7.06723,22.32197 C7.06153,22.32187 7.05593,22.32177 7.05013,22.32177 C6.88343,22.32177 6.72413,22.38597 6.61073,22.49937 L4.36433,24.74587 C4.12623,24.98397 4.12623,25.35677 4.36433,25.59497 C4.60253,25.83297 4.97533,25.83317 5.21343,25.59487" id="Fill-16"></path>
            <path d="M6.6107,7.50063 C6.849,7.73873 7.2218,7.73873 7.4598,7.50063 C7.6979,7.26263 7.6979,6.88963 7.4598,6.65153 L5.2134,4.40513 C5.0944,4.28603 4.9416,4.22653 4.7888,4.22653 C4.6361,4.22653 4.4834,4.28603 4.3643,4.40513 C4.2497,4.51963 4.1867,4.67043 4.1867,4.82963 C4.1867,4.98883 4.2497,5.13953 4.3643,5.25413 L6.6107,7.50063 Z" id="Fill-18"></path>
        </g>
    </g>
</svg>